<?xml version="1.0" encoding="UTF-8" standalone="no"?>
<svg width="15px" height="28px" viewBox="0 0 15 28" version="1.1" xmlns="http://www.w3.org/2000/svg" xmlns:xlink="http://www.w3.org/1999/xlink">
    <!-- Generator: sketchtool 3.8.3 (29802) - http://www.bohemiancoding.com/sketch -->
    <title>BC4B7E57-BE9E-43E1-921A-4361E40E33DD</title>
    <desc>Created with sketchtool.</desc>
    <defs></defs>
    <g id="Page-1" stroke="none" stroke-width="1" fill="none" fill-rule="evenodd">
        <g id="首页" transform="translate(-1163.000000, -560.000000)" fill="#888888">
            <g id="1">
                <g id="热门产品轮播" transform="translate(392.000000, 507.000000)">
                    <g id="arrow" transform="translate(0.000000, 53.000000)">
                        <path d="M784.824756,0.136651452 L784.824693,0.136525252 L784.82056,0.140469236 C784.804626,0.15425744 771.178794,13.3617107 771.178794,13.3617107 C770.776507,13.7640295 771.178794,14.2136762 771.178794,14.2136762 L784.813682,27.4309106 C784.9155,27.5216855 785.049659,27.5768383 785.19688,27.5768383 C785.514861,27.5768383 785.772735,27.3189958 785.772735,27.0009838 C785.772735,26.8573909 785.719822,26.7264504 785.632959,26.6256104 L785.633117,26.6253895 L785.629836,26.6221396 C785.608317,26.5975291 772.409541,13.7825505 772.409541,13.7825505 C772.409541,13.7825505 785.608191,0.979372271 785.629773,0.954698636 L785.633054,0.951480345 L785.632802,0.951227943 C785.719759,0.850451043 785.772577,0.719415821 785.772577,0.575886038 C785.772577,0.257842486 785.514797,0 785.196722,0 C785.054833,0 784.925155,0.051587435 784.824756,0.136651452 L784.824756,0.136651452 L784.824756,0.136651452 Z" id="Shape-Copy" transform="translate(778.386367, 13.788419) rotate(-180.000000) translate(-778.386367, -13.788419) "></path>
                    </g>
                </g>
            </g>
        </g>
    </g>
</svg>