<?xml version="1.0" encoding="utf-8"?>
<!-- Generator: Adobe Illustrator 18.0.0, SVG Export Plug-In . SVG Version: 6.00 Build 0)  -->
<!DOCTYPE svg PUBLIC "-//W3C//DTD SVG 1.1//EN" "http://www.w3.org/Graphics/SVG/1.1/DTD/svg11.dtd">
<svg version="1.1" id="图层_1" xmlns="http://www.w3.org/2000/svg" xmlns:xlink="http://www.w3.org/1999/xlink" x="0px" y="0px"
	 viewBox="0 0 15 28" enable-background="new 0 0 15 28" xml:space="preserve">
<title>BC4B7E57-BE9E-43E1-921A-4361E40E33DD</title>
<desc>Created with sketchtool.</desc>
<g id="Page-1">
	<g id="首页" transform="translate(-1163.000000, -560.000000)">
		<g id="_x31_">
			<g id="热门产品轮播" transform="translate(392.000000, 507.000000)">
				<g id="arrow" transform="translate(0.000000, 53.000000)">
					<path id="Shape-Copy" fill="#888888" d="M785,0.3L785,0.3L785,0.3c0,0-13.7,13.2-13.7,13.2c-0.4,0.4,0,0.9,0,0.9L785,27.6
						c0.1,0.1,0.2,0.1,0.4,0.1c0.3,0,0.6-0.3,0.6-0.6c0-0.1-0.1-0.3-0.1-0.4l0,0l0,0c0,0-13.2-12.8-13.2-12.8s13.2-12.8,13.2-12.8
						l0,0l0,0c0.1-0.1,0.1-0.2,0.1-0.4c0-0.3-0.3-0.6-0.6-0.6C785.2,0.2,785.1,0.2,785,0.3L785,0.3L785,0.3z"/>
				</g>
			</g>
		</g>
	</g>
</g>
</svg>
