<?xml version="1.0" encoding="UTF-8" standalone="no"?>
<svg width="99px" height="34px" viewBox="0 0 99 34" version="1.1" xmlns="http://www.w3.org/2000/svg" xmlns:xlink="http://www.w3.org/1999/xlink">
    <!-- Generator: sketchtool 3.8.3 (29802) - http://www.bohemiancoding.com/sketch -->
    <title>C74A8613-4B22-4178-80B5-E10824890D30</title>
    <desc>Created with sketchtool.</desc>
    <defs>
        <polygon id="path-1" points="34.014187 33.835975 0 33.835975 0 0.0678162119 34.014187 0.0678162119"></polygon>
        <polygon id="path-3" points="34.0135942 0.0678030972 0.000408354767 0.0678030972 0.000408354767 33.8359357 34.0135942 33.8359357 34.0135942 0.0678030972"></polygon>
        <polygon id="path-5" points="0 33.8993191 98.0329386 33.8993191 98.0329386 0.13114719 0 0.13114719"></polygon>
    </defs>
    <g id="设置" stroke="none" stroke-width="1" fill="none" fill-rule="evenodd">
        <g id="支付设置-嘿店代收" transform="translate(-456.000000, -353.000000)">
            <g id="Main" transform="translate(280.000000, 0.000000)">
                <g id="内容" transform="translate(152.000000, 107.000000)">
                    <g id="Group" transform="translate(0.000000, 195.000000)">
                        <g id="支付宝" transform="translate(24.033520, 51.000000)">
                            <g id="Group-3" transform="translate(0.000000, 0.063344)">
                                <mask id="mask-2" fill="white">
                                    <use xlink:href="#path-1"></use>
                                </mask>
                                <g id="Clip-2"></g>
                                <path d="M28.0016241,21.2563497 C32.9024082,22.8851978 34.0140552,22.973591 34.0140552,22.973591 L34.014187,5.47829353 C34.014187,2.48931793 31.5770994,0.0684719479 28.5672613,0.0684719479 L5.44911236,0.0678162119 C2.43822045,0.0678162119 -5.26909377e-05,2.48944907 -5.26909377e-05,5.47842468 L7.90364066e-05,28.42656 C7.90364066e-05,31.4138307 2.43808872,33.8359881 5.44884891,33.8359881 L28.5676565,33.835857 C31.5772311,33.835857 34.0140552,31.4139618 34.0140552,28.4269534 L34.014187,28.1945606 C34.014187,28.1945606 25.1619777,24.531095 20.6920737,22.3970679 C17.6943546,26.0592221 13.8260494,28.2816423 9.811922,28.2816423 C5.83257066,28.2815112 2.99213393,25.9693862 2.66979712,23.5393599 L2.66979712,23.549196 C2.66979712,23.549196 1.79749865,21.0381207 3.93069126,18.4995046 C4.63780365,17.6580642 5.82440356,16.8442959 7.67543621,16.3921004 C10.5700129,15.6857416 15.178494,16.8327549 19.4963846,18.2467839 C20.2733125,16.8263287 20.9269436,15.2625296 21.4134127,13.5961734 L8.10473562,13.59578 L8.10473562,12.2570295 L14.9673351,12.2570295 L14.9673351,9.85887197 L6.65626174,9.85887197 L6.65626174,8.52038375 L14.9673351,8.52038375 L14.9673351,5.09809783 C14.9673351,5.09809783 14.9670716,4.52131249 15.5556294,4.52131249 L18.9095393,4.52105019 L18.9095393,8.52038375 L27.1268228,8.52038375 L27.1268228,9.85887197 L18.9095393,9.85887197 L18.9095393,12.2570295 L25.6173591,12.2570295 C24.9755835,14.8683012 23.9997474,17.2706554 22.7769224,19.3806826 C24.8126368,20.1103855 26.6403537,20.8037607 28.0016241,21.2563497" id="Fill-1" fill="#259DC0" mask="url(#mask-2)"></path>
                            </g>
                            <g id="Group-6" transform="translate(0.000000, 0.063344)">
                                <mask id="mask-4" fill="white">
                                    <use xlink:href="#path-3"></use>
                                </mask>
                                <g id="Clip-5"></g>
                                <path d="M34.0135942,28.1945081 L34.0135942,28.4259829 C34.0135942,31.4131225 31.5770335,33.8359357 28.5673272,33.8359357 L5.44917822,33.8358045 C2.43815459,33.8358045 0.000408354767,31.4133848 0.000408354767,28.4263764 L0.0008035368,5.47771649 C0.0008035368,2.48979006 2.43802286,0.0677637531 5.44891477,0.0677637531 L28.5675906,0.0677637531 C31.577297,0.0677637531 34.0135942,2.49005235 34.0135942,5.47797878 L34.0135942,22.9726205 L34.0135942,28.1945081 Z" id="Fill-4" fill="#00A0E8" mask="url(#mask-4)"></path>
                            </g>
                            <path d="M28.0049436,21.3345265 C26.6439367,20.8818064 24.8178005,20.1901361 22.7832717,19.459384 C24.0055697,17.3506683 24.9802203,14.9493633 25.6219959,12.3405834 L18.917601,12.3400588 L18.917601,9.94308158 L27.1306692,9.94308158 L27.1306692,8.60433107 L18.917601,8.60433107 L18.917601,4.60880078 L15.5652718,4.60880078 C14.9771092,4.60880078 14.9771092,5.18479924 14.9771092,5.18479924 L14.9771092,8.60433107 L6.67051464,8.60433107 L6.67051464,9.94308158 L14.9771092,9.94308158 L14.9771092,12.3400588 L8.11912025,12.3400588 L8.11912025,13.6786781 L21.420684,13.6786781 C20.9338198,15.3426737 20.2803204,16.9066039 19.5043146,18.3265346 C15.1886634,16.9122433 10.582685,15.7664103 7.68995256,16.4723756 C5.83984201,16.9247022 4.64784127,17.7330935 3.94718353,18.5787306 C0.733563235,22.4601628 3.03839658,28.3558848 9.8247259,28.3558848 C13.8372725,28.3554913 17.702548,26.1349071 20.6989499,22.4753759 C25.166878,24.6073046 34.0140816,28.268803 34.0140816,28.268803 L34.0142133,23.0503252 C34.0142133,23.0503252 32.9028297,22.96285 28.0049436,21.3345265 L28.0049436,21.3345265 Z M9.19111738,26.0988416 C3.89962996,26.0988416 2.33444565,21.9606232 4.9500238,19.697285 C5.82219055,18.9315165 7.41740869,18.5586651 8.26784042,18.4745997 C11.4115135,18.1657481 14.3205802,19.3561711 17.754712,21.0209536 C15.3404133,24.1461911 12.2665557,26.0988416 9.19098565,26.0988416 L9.19111738,26.0988416 Z" id="Fill-7" fill="#FEFEFE"></path>
                            <path d="M84.1903838,5.43817561 L94.0815267,5.43817561 L94.0815267,7.387154 L97.6140589,7.387154 L97.6140589,5.43817561 L97.6140589,5.07765198 C97.6134002,5.07161921 97.6128733,5.07017659 97.6128733,5.06414382 C97.6128733,4.54453866 97.2042551,4.12460535 96.6981586,4.11594964 L90.9815871,4.1155562 L90.9815871,2.29864303 L87.2846591,2.29864303 L87.2846591,4.1155562 L80.6587737,4.1155562 L80.6587737,4.77653804 L80.6587737,5.43817561 L80.6587737,7.387154 L84.1903838,7.387154 L84.1903838,5.43817561 Z" id="Fill-9" fill="#151616"></path>
                            <polygon id="Fill-11" fill="#151616" points="62.7920144 2.4663934 59.1703028 10.9937148 61.9488277 10.9937148 61.9488277 21.1410975 64.9872506 21.1410975 64.9872506 7.6817237 63.8868004 7.6817237 66.1746409 2.4663934"></polygon>
                            <path d="M98.0329386,20.7216888 L96.9100948,16.9442563 C96.8356688,16.7064864 96.6195042,16.5337656 96.3623725,16.5337656 L93.4214278,16.5333721 L94.2739671,19.399594 L90.8161243,19.399594 L90.8161243,13.84774 L97.6065372,13.84774 L97.6065372,12.5251206 L90.8161243,12.5251206 L90.8161243,9.91214396 L97.6065372,9.91214396 L97.6065372,8.59018029 L90.8161243,8.59018029 L87.4499638,8.59018029 L80.6592875,8.59018029 L80.6592875,9.91214396 L87.4499638,9.91214396 L87.4499638,12.5251206 L80.6592875,12.5251206 L80.6592875,13.84774 L87.4499638,13.84774 L87.4499638,19.399594 L80.6592875,19.399594 L80.6592875,20.7216888 L98.0329386,20.7216888 Z" id="Fill-13" fill="#151616"></path>
                            <path d="M69.9369187,9.05904461 L67.3069823,9.05904461 L69.3552108,15.4825028 L72.467401,15.4825028 L70.5614381,9.45707633 C70.4467036,9.22192942 70.2103847,9.06114296 69.9369187,9.05904461" id="Fill-15" fill="#151616"></path>
                            <path d="M77.2194123,2.62171102 L74.0620396,2.62171102 L74.0620396,5.90629239 L66.280115,5.90629239 L66.280115,7.22773147 L74.0620396,7.22773147 L74.0620396,19.036749 C74.034772,19.3069123 73.8207151,19.5175346 73.5530451,19.5322231 L71.9478157,19.5316985 L71.9478157,20.9008752 L76.0405843,20.9008752 C76.6873655,20.8733343 77.2047906,20.3393029 77.2192806,19.6750424 L77.2194123,19.5316985 L77.2194123,7.22773147 L78.5019097,7.22773147 L78.5019097,5.90629239 L77.2194123,5.90629239 L77.2194123,2.62171102 Z" id="Fill-17" fill="#151616"></path>
                            <path d="M53.542476,9.9526291 C53.542476,9.9526291 51.8686166,16.4627756 40.5901214,19.8183076 L40.5902531,21.4327295 C40.5902531,21.4327295 54.8554024,18.7553596 57.5182707,8.60587861 L53.63811,9.15643451 L53.542476,9.9526291 Z" id="Fill-19" fill="#151616"></path>
                            <path d="M45.8222656,11.2923632 C45.8222656,11.2923632 48.5731278,16.2370057 58.6911051,19.9051926 L58.6911051,21.4326639 C58.6911051,21.4326639 47.2351731,19.1674897 42.6729283,11.293019 L45.8222656,11.2923632 Z" id="Fill-21" fill="#151616"></path>
                            <polygon id="Fill-23" fill="#151616" points="56.894186 9.9526291 41.8031063 9.9526291 41.8031063 8.60561631 57.5184419 8.60561631"></polygon>
                            <mask id="mask-6" fill="white">
                                <use xlink:href="#path-5"></use>
                            </mask>
                            <g id="Clip-26"></g>
                            <polygon id="Fill-25" fill="#151616" mask="url(#mask-6)" points="40.713102 6.44234341 58.4854919 6.44234341 58.4854919 5.09480604 40.713102 5.09480604"></polygon>
                            <path d="M48.3178138,2.35160026 L48.3172869,2.35278059 C47.9742689,2.35278059 47.6956656,2.63894376 47.6956656,2.99277888 L47.6956656,2.99343461 L47.6956656,9.45164683 L51.4523977,9.45164683 L51.4523977,2.35160026 L48.3178138,2.35160026 Z" id="Fill-27" fill="#151616" mask="url(#mask-6)"></path>
                            <path d="M47.5639251,30.1544767 L48.0883316,31.7312593 L49.5580136,31.7312593 L46.6630418,23.9053131 L45.5392758,23.9053131 L42.6548421,31.7312593 L44.1257097,31.7312593 L44.672905,30.1544767 L47.5639251,30.1544767 Z M46.1420601,25.9227503 L47.2293376,29.1681187 L45.0156596,29.1681187 L46.1420601,25.9227503 Z" id="Fill-28" fill="#151616" mask="url(#mask-6)"></path>
                            <polygon id="Fill-29" fill="#151616" mask="url(#mask-6)" points="54.1968579 23.9052868 54.1968579 31.7312331 58.9574841 31.7312331 58.9574841 30.6656622 55.6116096 30.6656622 55.6116096 23.9052868"></polygon>
                            <polygon id="Fill-30" fill="#151616" mask="url(#mask-6)" points="64.1430496 31.7311938 65.5578013 31.7311938 65.5578013 23.9052475 64.1430496 23.9052475"></polygon>
                            <path d="M74.3450163,23.9052868 L71.289337,23.9052868 L71.289337,31.7312331 L72.7038253,31.7312331 L72.7038253,28.7225854 L74.3450163,28.7225854 C75.8696285,28.7225854 76.9338538,27.7324241 76.9338538,26.3145919 C76.9338538,24.8958416 75.8693651,23.9056803 74.3450163,23.9052868 L74.3450163,23.9052868 Z M74.2654529,27.646785 L72.7038253,27.646785 L72.7038253,24.970202 L74.2654529,24.970202 C75.0504162,24.970202 75.5194973,25.6534789 75.5194973,26.3145919 C75.5194973,26.9602295 75.0796597,27.6473096 74.2653212,27.6473096 L74.2654529,27.646785 Z" id="Fill-31" fill="#151616" mask="url(#mask-6)"></path>
                            <path d="M85.2378928,30.1544767 L85.762958,31.7312593 L87.23264,31.7312593 L84.3370095,23.9053131 L83.2136387,23.9053131 L80.3288099,31.7312593 L81.8000726,31.7312593 L82.3467411,30.1544767 L85.2378928,30.1544767 Z M83.8160279,25.9227503 L84.903964,29.1681187 L82.6893639,29.1681187 L83.8160279,25.9227503 Z" id="Fill-32" fill="#151616" mask="url(#mask-6)"></path>
                            <polygon id="Fill-33" fill="#151616" mask="url(#mask-6)" points="95.108394 23.9052868 93.5663937 27.2394418 92.000419 23.9052868 90.4723818 23.9052868 92.8525632 28.5166843 92.8525632 31.7312331 94.2559864 31.7312331 94.2559864 28.5166843 94.2649438 28.4987172 96.6366946 23.9052868"></polygon>
                        </g>
                    </g>
                </g>
            </g>
        </g>
    </g>
</svg>