<?xml version="1.0" standalone="no"?>
<!DOCTYPE svg PUBLIC "-//W3C//DTD SVG 1.1//EN" "http://www.w3.org/Graphics/SVG/1.1/DTD/svg11.dtd" >
<svg xmlns="http://www.w3.org/2000/svg">
<metadata>
<json>
<![CDATA[
{
	"fontFamily": "icomoon",
	"description": "Font generated by IcoMoon.",
	"majorVersion": 2,
	"minorVersion": 4,
	"version": "Version 2.4",
	"fontId": "icomoon",
	"psName": "icomoon",
	"subFamily": "Regular",
	"fullName": "icomoon"
}
]]>
</json>
</metadata>
<defs>
<font id="icomoon" horiz-adv-x="1024">
<font-face units-per-em="1024" ascent="960" descent="-64" />
<missing-glyph horiz-adv-x="1024" />
<glyph unicode="&#x20;" horiz-adv-x="512" d="" />
<glyph unicode="&#xe900;" glyph-name="arrow-up" data-tags="从低到高" d="M540.752 852.753l136.303-141.327c3.625-3.618 9.501-3.618 13.127 0l28.441 28.388c3.624 3.618 3.624 9.484 0 13.103l-171.589 177.909c-0.173 0.205-1.497 1.551-1.497 1.551l-26.462 27.438c-1.941 1.937-4.528 2.826-7.069 2.689-2.547 0.142-5.14-0.748-7.084-2.687l-27.413-28.388c-0.182-0.183-172.133-178.511-172.133-178.511-3.626-3.618-3.626-9.484 0-13.103l28.441-28.388c3.624-3.618 9.5-3.618 13.127 0l135.025 140.001v-903.644c0-5.118 4.156-9.265 9.282-9.265h40.222c5.126 0 9.282 4.147 9.282 9.265l-0.004 904.969z" />
<glyph unicode="&#xe901;" glyph-name="arrow-down" data-tags="从高到低" d="M540.752 48.287l136.303 141.327c3.625 3.618 9.501 3.618 13.127 0l28.441-28.388c3.624-3.618 3.624-9.484 0-13.103l-171.589-177.909c-0.173-0.205-1.497-1.551-1.497-1.551l-26.462-27.438c-1.941-1.937-4.528-2.826-7.069-2.689-2.547-0.142-5.14 0.748-7.084 2.687l-27.413 28.388c-0.182 0.183-172.133 178.511-172.133 178.511-3.626 3.618-3.626 9.484 0 13.103l28.441 28.388c3.624 3.618 9.5 3.618 13.127 0l135.025-140.001v903.644c0 5.118 4.156 9.265 9.282 9.265h40.222c5.126 0 9.282-4.147 9.282-9.265l-0.004-904.969z" />
<glyph unicode="&#xe902;" glyph-name="lock" data-tags="登录" d="M882.731 523.2c-20 19.2-47.2 32-77.6 32h-8v118.4c0 78.4-32 150.4-84 202.4-52 51.2-124 84-203.2 84-77.6 0-148-31.2-200-82.4l-2.4-2.4c-52.8-51.2-84.8-123.2-84.8-201.6v-118.4h-8c-29.6 0-57.6-12.8-76.8-32v-0.8c-20-19.2-32-47.2-32-76.8v-400c0-30.4 12-57.6 32-76.8 19.2-20 47.2-32.8 76.8-32.8h590.4c28.8 0 54.4 11.2 74.4 29.6l3.2 3.2c19.2 19.2 32 47.2 32 76.8v400c0 30.4-12.8 57.6-32 77.6v0 0zM313.131 673.6v0c0 53.6 21.6 103.2 57.6 138.4l2.4 2.4c35.2 33.6 84 55.2 136.8 55.2 54.4 0 103.2-21.6 139.2-57.6 36-35.2 58.4-84.8 58.4-138.4v-118.4h-394.4v118.4zM824.331 45.6v0c0-4.8-1.6-10.4-5.6-13.6l-1.6-1.6c-3.2-3.2-7.2-4.8-12-4.8h-590.4c-4.8 0-9.6 1.6-12.8 5.6-3.2 3.2-5.6 8-5.6 13.6v400c0 4.8 2.4 9.6 5.6 13.6v0c3.2 3.2 8 5.6 12.8 5.6h590.4c4.8 0 10.4-2.4 13.6-5.6 4-3.2 5.6-8 5.6-13.6v-399.2zM509.931 394.4v0c-29.6 0-56.8-12-76.8-32-19.2-19.2-31.2-47.2-31.2-76.8s12-57.6 31.2-77.6c14.4-13.6 30.4-23.2 50.4-28.8v-55.2c0-15.2 12-27.2 27.2-27.2s27.2 12.8 27.2 27.2v55.2c19.2 4.8 36 15.2 49.6 28.8 19.2 20 32 47.2 32 77.6 0 29.6-12 57.6-32 76.8-20 20-47.2 32-77.6 32v0 0zM549.131 246.4v0c-9.6-8.8-23.2-16-37.6-16h-3.2c-14.4 0-27.2 7.2-37.6 16-9.6 9.6-16 24-16 38.4 0 15.2 6.4 29.6 16 38.4 10.4 9.6 24 16 39.2 16s29.6-6.4 39.2-16c9.6-9.6 16-23.2 16-38.4-0.8-14.4-7.2-28-16-38.4v0 0z" />
<glyph unicode="&#xe903;" glyph-name="phone" data-tags="电话" d="M433.277 369.367c-101.38 101.324-198.292 218.735-151.819 265.097 66.358 66.414 124.226 107.301 6.591 253.702-117.579 146.457-196.058 34.017-260.405-30.386-74.178-74.234-3.91-350.949 269.621-624.535 273.475-273.475 550.302-343.799 624.591-269.509 64.347 64.291 176.731 142.714 30.33 260.349-146.289 117.69-187.344 59.823-253.758-6.535-46.529-46.305-163.772 50.495-265.152 151.819v0 0 0z" />
<glyph unicode="&#xe904;" glyph-name="share" data-tags="分享" d="M857.918 268.37c-60.472 0-113.389-32.306-142.433-80.587l-262.47 91.242c2.433 13.351 3.712 27.104 3.712 41.157 0 46.119-13.7 89.034-37.233 124.927l253.037 218.595c28.291-22.346 64.030-35.687 102.89-35.687 91.725 0 166.082 74.316 166.082 165.991s-74.357 165.991-166.082 165.991c-91.726 0-166.083-74.316-166.083-165.991 0-27.604 6.75-53.63 18.677-76.531l-255.237-220.495c-39.352 32.146-89.627 51.436-144.415 51.436-126.121 0-228.364-102.183-228.364-228.238 0-126.052 102.241-228.238 228.364-228.238 87.395 0 163.311 49.075 201.7 121.148l262.899-91.391c-0.736-6.34-1.126-12.786-1.126-19.323 0-91.675 74.358-165.991 166.082-165.991s166.082 74.317 166.082 165.992c0 91.675-74.358 165.991-166.082 165.991v0zM781.569 890.209c56.463 0 102.4-45.919 102.4-102.361s-45.937-102.361-102.4-102.361c-56.465 0-102.4 45.919-102.4 102.361s45.935 102.361 102.4 102.361v0zM228.364 161.737c-87.415 0-158.533 71.078-158.533 158.446s71.118 158.446 158.533 158.446c87.415 0 158.533-71.078 158.533-158.446s-71.118-158.446-158.533-158.446v0zM864.066-6.144c-56.463 0-102.4 45.918-102.4 102.361s45.937 102.361 102.4 102.361c56.463 0 102.4-45.919 102.4-102.361 0-56.444-45.938-102.361-102.4-102.361v0z" />
<glyph unicode="&#xe905;" glyph-name="profile" data-tags="个人中心" d="M960.635-17.537c0-25.651-20.761-46.463-46.36-46.463s-46.36 20.787-46.36 46.463l-0.051 0.563h-1.254c-21.99 180.040-172.156 320.12-356.369 325.931-3.968-0.154-7.859-0.589-11.853-0.589s-7.859 0.461-11.827 0.589c-184.213-5.837-334.328-145.916-356.317-325.931h-1.152l0.051-0.563c0-25.651-20.761-46.463-46.36-46.463s-46.36 20.787-46.36 46.463l-0.435 4.326c0 6.067 1.229 11.827 3.354 17.152 23.219 162.684 130.019 298.309 275.782 361.181-85.63 58.674-141.872 157.257-141.872 269.075 0 179.938 145.558 325.803 325.112 325.803s325.112-145.865 325.112-325.803c0-111.767-56.216-210.324-141.769-268.998 147.171-63.41 254.611-200.955 276.524-365.687 1.152-4.070 1.971-8.269 1.971-12.723l0.435-4.326zM730.497 634.069c0 128.534-103.959 232.724-232.212 232.724s-232.212-104.189-232.212-232.724c0-128.534 103.959-232.724 232.212-232.724s232.212 104.189 232.212 232.724v0z" />
<glyph unicode="&#xe906;" glyph-name="check" data-tags="勾选" d="M983.936 807.323c37.627-37.638 37.627-98.666 0-136.304l-545.246-545.234c-37.638-37.652-98.666-37.641-136.304 0v0c-37.638 37.638-37.638 98.666 0 136.304l545.234 545.234c37.635 37.641 98.666 37.641 136.316 0v0 0zM438.69 262.089c37.649-37.638 37.649-98.666 0-136.304v0c-37.638-37.652-98.666-37.641-136.304 0l-272.617 272.609c-37.638 37.641-37.638 98.669 0 136.307v0c37.644 37.652 98.672 37.638 136.313 0l272.609-272.612z" />
<glyph unicode="&#xe907;" glyph-name="cart" data-tags="购物车" d="M835.704 95.987c-43.202 0-78.342-35.133-78.342-78.313 0-43.185 35.139-78.315 78.342-78.315 43.213 0 78.374 35.129 78.374 78.315 0 43.18-35.156 78.313-78.374 78.313v0 0zM331.813 95.987c-43.185 0-78.32-35.133-78.32-78.313 0-43.185 35.135-78.315 78.32-78.315 43.201 0 78.351 35.129 78.351 78.315 0 43.18-35.15 78.313-78.351 78.313v0 0zM994.345 817.514c-19.615 22.127-46.569 34.315-75.903 34.315h-623.178c-23.346 0-42.345-18.987-42.345-42.328 0-23.336 18.998-42.322 42.345-42.322h623.178c5.006 0 9.092-1.887 12.512-5.775 5.807-6.598 8.775-17.829 7.572-28.646l-56.687-324.289c-1.677-13.704-14.242-24.533-28.604-24.655h-0.167l-488.668-36.003c-11.331-0.842-21.592-6.002-28.876-14.516-7.405-8.553-11.018-19.481-10.183-30.758 1.569-22.004 20.088-39.243 42.149-39.243h0.084l2.928 0.090 485.706 35.875c26.399 0.139 52.2 10.217 72.69 28.396 20.384 18.196 33.403 42.595 36.666 68.714l56.737 324.369c4.457 36.435-5.734 71.709-27.955 96.777v0 0zM907.146 203.973h-584.638c-12.093 0-24.533 11.926-26.107 25.14l-61.297 431.684-34.727 200.353c-6.855 55.317-55.681 98.642-111.204 98.642h-45.864c-23.336 0-42.322-18.977-42.322-42.306 0-23.336 18.986-42.322 42.322-42.322h45.863c12.69 0 25.762-12.472 27.427-26.164l34.811-201.309 61.031-429.436c6.719-55.468 55.066-98.914 110.067-98.914l5.095 0.023h579.536c23.329 0 42.305 18.957 42.305 42.254 0.002 23.352-18.973 42.355-42.297 42.355v0 0z" />
<glyph unicode="&#xe908;" glyph-name="pot" data-tags="家居厨房" d="M790.92-64h-534.916c-73.118 0-130.843 57.725-130.843 130.843v130.843c-11.545 0-23.090-3.848-26.938-7.697-19.242-19.242-42.332-26.938-65.421-26.938-15.393 0-26.938 7.697-38.483 15.393-15.393 19.242-11.545 96.208-11.545 96.208 3.848 46.18 34.635 50.028 69.27 50.028h938.99c30.787 0 65.421-7.697 65.421-53.876 0-76.966-7.697-88.511-11.545-92.36-7.697-11.545-23.090-15.393-38.483-15.393-23.090 0-46.18 7.697-65.421 26.938-3.848 3.848-15.393 7.697-26.938 7.697v-130.843c7.697-73.118-53.876-130.843-123.146-130.843v0zM140.554 243.866h30.787v-177.023c0-46.18 38.483-84.663 84.663-84.663h534.916c46.18 0 84.663 38.483 84.663 84.663v177.023h23.090c26.938 0 57.725-3.848 80.815-23.090 11.545-11.545 23.090-15.393 30.787-15.393h3.848c0 7.697 3.848 34.635 3.848 61.573v7.697h-965.928c-15.393 0-23.090 0-23.090-3.848v-7.697c0-15.393 0-50.028 3.848-61.573h3.848c7.697 0 19.242 3.848 30.787 15.393 19.242 23.090 50.028 26.938 73.118 26.938v0zM679.318 690.271c-7.697 0-15.393 3.848-19.242 11.545-7.697 11.545-3.848 23.090 7.697 30.787 69.27 46.18 53.876 80.815 30.787 134.691-11.545 23.090-23.090 53.876-3.848 80.815 3.848 11.545 19.242 15.393 30.787 7.697s11.545-19.242 7.697-30.787c-3.848-7.697 0-23.090 7.697-42.332 23.090-53.876 53.876-123.146-46.18-188.568-7.697-3.848-11.545-3.848-15.393-3.848v0zM502.296 690.271c-7.697 0-15.393 3.848-19.242 11.545-7.697 11.545-3.848 23.090 7.697 30.787 69.27 42.332 53.876 80.815 30.787 134.691-11.545 23.090-23.090 57.725-3.848 84.663 3.848 7.697 19.242 11.545 26.938 3.848 11.545-7.697 11.545-19.242 7.697-30.787-3.848-7.697 0-23.090 7.697-42.332 23.090-53.876 53.876-123.146-46.18-188.568-3.848-3.848-7.697-3.848-11.545-3.848v0zM313.728 690.271c-7.697 0-11.545 3.848-19.242 11.545-3.848 7.697-3.848 23.090 7.697 26.938 69.27 46.18 53.876 80.815 30.787 134.691-11.545 26.938-23.090 57.725-3.848 88.511 3.848 7.697 19.242 11.545 26.938 3.848 11.545-7.697 11.545-19.242 7.697-30.787-3.848-7.697 0-23.090 7.697-42.332 23.090-53.876 53.876-123.146-46.18-188.568-3.848-3.848-7.697-3.848-11.545-3.848v0zM282.941 228.472v-142.388c0-15.393 11.545-23.090 23.090-23.090 15.393 0 23.090 11.545 23.090 23.090v142.388c0 15.393-11.545 23.090-23.090 23.090s-23.090-11.545-23.090-23.090v0 0 0zM921.762 390.102h-796.602v23.090c7.697 111.601 73.118 150.084 130.843 150.084h200.113l-11.545 34.635c-3.848 11.545 0 26.938 7.697 38.483 11.545 11.545 26.938 19.242 42.332 19.242h42.332c15.393 0 34.635-7.697 42.332-23.090 7.697-11.545 11.545-23.090 7.697-38.483l-7.697-30.787h211.658c57.725 0 119.298-38.483 130.843-150.084v-23.090zM175.188 436.282h696.546c-11.545 53.876-38.483 84.663-80.815 84.663h-265.534l23.090 88.511h-50.028c-3.848 0-7.697-3.848-7.697-3.848l23.090-84.663h-257.837c-42.332 0-73.118-30.787-80.815-84.663v0z" />
<glyph unicode="&#xe909;" glyph-name="bottle" data-tags="进口日化" d="M529.457 753.939v70.051h-255.735c-32.708 0-59.32-26.618-59.32-59.336v-40.533c0-12.954-10.501-23.454-23.454-23.454s-23.454 10.501-23.454 23.454v40.533c0 58.583 47.653 106.245 106.228 106.245h255.735v65.646c0 12.954 10.501 23.454 23.454 23.454h175.151c12.954 0 23.454-10.501 23.454-23.454v-182.606h110.789c51.15 0 92.766-41.614 92.766-92.764v-632.414c0-51.149-41.615-92.761-92.766-92.761h-429.085c-51.148 0-92.761 41.612-92.761 92.761v632.414c0 51.15 41.613 92.764 92.761 92.764h96.236zM576.365 753.939h128.243v159.152h-128.243v-159.152zM433.221 707.031c-25.284 0-45.852-20.571-45.852-45.856v-632.414c0-25.284 20.569-45.852 45.852-45.852h429.085c25.286 0 45.857 20.568 45.857 45.852v632.414c0 25.285-20.571 45.856-45.857 45.856h-429.085zM442.155 317.498c-12.954 0-23.454 10.501-23.454 23.454v301.040c0 12.954 10.501 23.454 23.454 23.454s23.454-10.501 23.454-23.454v-301.041c0-12.953-10.502-23.453-23.454-23.453v0zM442.155 118.218c-12.954 0-23.454 10.501-23.454 23.454v123.481c0 12.954 10.501 23.454 23.454 23.454s23.454-10.501 23.454-23.454v-123.481c0-12.954-10.502-23.454-23.454-23.454v0zM135.922 477.225c-24.116 0-46.849 13.125-57.915 33.439-14.473 26.518-7.657 59.528 20.265 98.098 17.953 24.801 38.779 43.631 39.657 44.42l22.88 20.579 13.777-27.517c37.498-74.892 29.133-116.9 15.513-138.951-11.803-19.108-31.55-30.068-54.176-30.068v0zM146.198 593.945c-3.442-4.101-6.958-8.551-10.313-13.221-15.189-21.131-21.43-38.927-16.695-47.604 2.932-5.382 9.651-8.987 16.731-8.987 4.307 0 10.28 1.356 14.267 7.811 3.068 4.969 10.175 22.268-3.991 62v0z" />
<glyph unicode="&#xe90a;" glyph-name="cake" data-tags="进口食品" d="M207.738 595.627c-2.742 0-5.397 0.363-7.884 1.089-15.432 4.369-24.431 20.426-20.11 35.81 34.332 121.592 153.498 194.194 318.777 194.194 16.037 0 29.082-13.012 29.082-29.002 0-15.969-13.046-28.968-29.082-28.968-137.71 0-235.959-56.814-262.81-151.972-3.522-12.454-15.022-21.151-27.973-21.151v0zM165.959-64c-13.597 0-25.245 9.228-28.316 22.449l-101.55 434.038c-2.050 8.643-0.027 17.603 5.525 24.586 3.898 4.92 9.121 8.361 15.109 9.974l9.88 2.655-2.803 9.84c-11.984 42.128-19.969 80.371-19.969 130.074 0 116.417 44.413 214.754 128.434 284.392 83.698 69.335 201.755 105.992 341.407 105.992s257.709-36.576 341.387-105.777c84.028-69.49 128.441-167.639 128.441-283.841 0-49.992-7.998-88.457-20.022-130.827l-2.789-9.84 9.88-2.648c5.995-1.606 11.231-5.048 15.156-9.961 5.545-6.99 7.568-15.969 5.525-24.62l-101.57-434.038c-3.065-13.22-14.706-22.442-28.316-22.442l-695.41-0.007zM768.489-5.963h69.839l88.007 376.014h-115.187l-42.659-376.014zM626.257-5.963h83.725l42.679 376.014h-101.758l-24.646-376.014zM489.79-5.963h78.221l24.62 376.014h-127.48l24.64-376.014zM327.636-5.963h103.875l-24.64 376.014h-121.881l42.646-376.014zM189.019-5.963h80.096l-42.626 376.014h-125.477l88.007-376.014zM513.677 902.003c-199.027 0-411.697-87.321-411.697-332.387 0-47.384 7.985-82.435 23.719-134.403l2.164-7.158h771.608l2.164 7.158c15.741 51.961 23.726 87.133 23.726 135.162 0.007 244.509-212.664 331.628-411.684 331.628v0z" />
<glyph unicode="&#xe90b;" glyph-name="calendar" data-tags="日期" d="M558.532 494.562h-93.094v-93.094h93.094v93.094zM558.532 331.656h-93.094v-93.094h93.094v93.094zM930.906 866.906h-93.094v69.813c0 12.86-10.421 23.281-23.281 23.281s-23.251-10.421-23.251-23.281v-69.813h-558.562v69.813c0 12.86-10.421 23.281-23.281 23.281s-23.251-10.421-23.251-23.281v-69.813h-93.094c-51.411 0-93.094-41.683-93.094-93.094v-744.719c0-51.411 41.683-93.094 93.094-93.094h837.813c51.411 0 93.094 41.683 93.094 93.094v744.719c0 51.411-41.683 93.094-93.094 93.094v0zM977.438 29.094c0-25.69-20.841-46.532-46.532-46.532h-837.813c-25.72 0-46.562 20.841-46.562 46.532v558.532h930.906v-558.532zM977.438 634.187h-930.906v139.625c0 25.72 20.841 46.562 46.562 46.562h93.094v-69.813c0-12.86 10.391-23.281 23.251-23.281s23.281 10.421 23.281 23.281v69.813h558.562v-69.813c0-12.86 10.391-23.281 23.251-23.281s23.281 10.421 23.281 23.281v69.813h93.094c25.69 0 46.532-20.841 46.532-46.562v-139.625zM791.281 331.656h-93.094v-93.094h93.094v93.094zM791.281 494.562h-93.094v-93.094h93.094v93.094zM558.532 168.719h-93.094v-93.094h93.094v93.094zM325.813 168.719h-93.094v-93.094h93.094v93.094zM325.813 494.562h-93.094v-93.094h93.094v93.094zM325.813 331.656h-93.094v-93.094h93.094v93.094z" />
<glyph unicode="&#xe90c;" glyph-name="angle-circle-left" data-tags="上一个" d="M574.961 207.341c7.372-7.372 17.033-11.045 26.694-11.045 9.636 0 19.297 3.673 26.669 11.045 14.743 14.743 14.743 38.619 0 53.362l-187.309 187.309 187.309 187.309c14.743 14.718 14.743 38.619 0 53.362s-38.619 14.743-53.362 0l-240.672-240.672 240.672-240.672zM511.987 960c282.763 0 512.013-229.224 512.013-511.987s-229.25-511.987-512.013-511.987c-282.763 0-511.987 229.224-511.987 511.987s229.224 511.987 511.987 511.987v0z" />
<glyph unicode="&#xe90d;" glyph-name="star-o" data-tags="收藏" d="M512 942.345l-158.207-320.57-353.793-51.412 256-249.536-60.428-352.346 316.428 166.348 316.428-166.348-60.428 352.346 256 249.536-353.779 51.412-158.221 320.57zM312.515 311.138l5.088 29.712-194.397 189.481 268.642 39.028 120.153 243.444 120.153-243.444 268.642-39.028-194.397-189.481 5.103-29.712 40.777-237.869-240.277 126.345-240.291-126.345 40.806 237.869z" />
<glyph unicode="&#xe90e;" glyph-name="double-arrow-down" data-tags="收起" d="M562.756 428.835c-24.082-23.512-63.132-23.512-87.218 0l-439.819 428.375c-24.084 23.514-24.084 61.638 0 85.153s63.134 23.515 87.218 0l396.209-385.9 396.209 385.9c24.087 23.515 63.136 23.515 87.22 0s24.085-61.638 0-85.153l-439.82-428.375zM122.937 467.162l396.209-385.9 396.209 385.9c24.087 23.515 63.136 23.515 87.22 0s24.085-61.638 0-85.153l-439.821-428.375c-24.082-23.512-63.132-23.512-87.218 0l-439.819 428.375c-24.084 23.514-24.084 61.638 0 85.153s63.136 23.515 87.219 0v0z" />
<glyph unicode="&#xe90f;" glyph-name="heart" data-tags="售后无忧" d="M944.977 412.768l-421.651-420.604-22.221-0.196-399.851 399.226c-61.932 53.919-101.254 133.145-101.254 221.716 0 162.435 131.685 294.124 294.126 294.124 86.511 0 164.054-37.575 217.873-97.027 53.818 59.453 131.359 97.027 217.873 97.027 162.441 0 294.128-131.689 294.128-294.124 0-77.413-30.134-147.622-79.023-200.143v0zM729.872 863.457c-93.452 0-174.803-51.263-217.873-127.105-43.071 75.842-124.421 127.105-217.873 127.105-138.375 0-250.554-112.172-250.554-250.547 0-70.889 29.563-134.77 76.878-180.344l380.898-376.203 21.977 0.026 380.23 376.182c47.309 45.574 76.87 109.455 76.87 180.34-0.001 138.375-112.177 250.547-250.555 250.547v0zM615.125 645.59h-45.376c15.143 74.578 81.070 130.721 160.123 130.721 19.129 0 37.408-3.46 54.469-9.497v-47.743c-16.41 8.444-34.744 13.667-54.469 13.667-54.771 0-100.448-36.969-114.747-87.149v0zM130.719 602.014c0 96.261 78.038 174.298 174.298 174.298v0c12.035 0 21.789-9.758 21.789-21.787 0-12.031-9.754-21.785-21.789-21.785v0c-72.194 0-130.721-58.529-130.721-130.726 0-52.17 30.777-96.847 74.974-117.808l230.048-212.354v-64.915l-262.273 244.787c-51.585 30.27-86.325 86.154-86.325 150.289v0z" />
<glyph unicode="&#xe910;" glyph-name="wechat" data-tags="微信" d="M693.12 619.372c11.776 0 23.36-0.896 35.008-2.176-31.36 146.048-187.456 254.528-365.696 254.528-199.232 0-362.432-135.744-362.432-308.224 0-99.52 54.272-181.248 145.024-244.736l-36.224-108.992 126.72 63.488c45.312-8.896 81.664-18.112 126.912-18.112 11.392 0 22.656 0.512 33.792 1.344-7.040 24.256-11.2 49.6-11.2 76.032 0.064 158.336 136 286.848 308.096 286.848v0zM498.304 717.612c27.392 0 45.376-17.984 45.376-45.248 0-27.136-17.984-45.312-45.376-45.312-27.072 0-54.336 18.176-54.336 45.312 0 27.328 27.2 45.248 54.336 45.248v0zM244.672 627.052c-27.2 0-54.592 18.176-54.592 45.312 0 27.264 27.392 45.248 54.592 45.248s45.248-17.92 45.248-45.248c0-27.136-18.048-45.312-45.248-45.312v0zM1024 336.876c0 144.896-145.024 262.976-307.904 262.976-172.48 0-308.224-118.144-308.224-262.976 0-145.28 135.808-262.976 308.224-262.976 36.096 0 72.512 9.024 108.736 18.112l99.392-54.528-27.264 90.624c72.768 54.656 127.040 127.040 127.040 208.768v0zM616.128 382.252c-17.984 0-36.224 17.92-36.224 36.224 0 18.048 18.24 36.224 36.224 36.224 27.52 0 45.376-18.176 45.376-36.224 0-18.304-17.856-36.224-45.376-36.224v0zM815.488 382.252c-17.856 0-36.032 17.92-36.032 36.224 0 18.048 18.112 36.224 36.032 36.224 27.264 0 45.376-18.176 45.376-36.224 0-18.304-18.112-36.224-45.376-36.224v0z" />
<glyph unicode="&#xe911;" glyph-name="angle-circle-right" data-tags="下一个" d="M449.039 207.341c-7.372-7.372-17.033-11.045-26.694-11.045-9.636 0-19.297 3.673-26.669 11.045-14.743 14.743-14.743 38.619 0 53.362l187.309 187.309-187.309 187.309c-14.743 14.718-14.743 38.619 0 53.362s38.619 14.743 53.362 0l240.672-240.672-240.672-240.672zM512.013 960c-282.763 0-512.013-229.224-512.013-511.987s229.25-511.987 512.013-511.987c282.763 0 511.987 229.224 511.987 511.987s-229.224 511.987-511.987 511.987v0z" />
<glyph unicode="&#xe912;" glyph-name="weibo" data-tags="新浪" d="M791.32 459.472c-29.408 10.528-36.992 21.088-26.816 52.608 23.552 73.761-11.264 120.833-88.929 116.705-44.736-2.336-88.737-18.24-133.153-27.776-10.976-2.4-22.208-3.584-33.408-5.44-0.352 11.040-1.152 22.080-0.544 33.024 0.704 12.768 3.584 25.312 3.904 37.952 1.408 58.048-32.224 90.817-89.889 83.617-28.032-3.456-56.96-10.304-82.465-22.208-137.409-64.512-242.114-164.865-309.442-300.674-62.624-126.497-27.68-238.114 92.161-312.674 95.073-59.008 200.513-79.073 336.834-82.561 28.864 4.448 84.353 8.448 137.601 21.632 109.921 26.88 208.385 75.745 272.418 174.241 64 98.401 32.256 191.681-78.273 231.554v0zM662.839 182.382c-66.112-58.624-146.017-84.993-232.642-93.249-13.696-1.312-27.616-0.256-41.472-0.256-76.097-1.76-148.129 13.312-211.553 57.376-93.729 65.248-104.513 169.249-24.896 251.426 68.672 70.816 156.993 99.073 252.61 107.329 63.168 5.6 125.409-1.472 184.673-25.152 17.728-7.2 35.104-15.584 51.2-25.696 108.961-68.448 118.657-186.209 22.080-271.778v0zM358.261 413.839c-64.48-17.184-111.777-55.424-127.905-123.809-3.2-13.888-3.84-29.632-1.536-43.872 10.592-69.632 70.432-114.369 150.177-113.825 63.328 0.256 121.569 30.432 154.529 80.385 33.76 50.88 32.224 114.561-6.112 156.449-46.336 50.496-105.505 61.536-169.153 44.672v0zM333.493 196.206c-29.152 0-50.944 19.68-50.528 45.568 0.544 30.304 31.296 57.888 64.704 57.888 29.088 0.064 50.016-19.136 49.728-45.952-0.256-31.392-29.216-57.504-63.904-57.504v0zM445.206 304.558c-3.52-9.056-13.12-15.808-23.616-27.36-8.352 11.808-18.528 22.88-17.056 24.736 6.88 8.672 16.384 15.872 26.304 20.736 1.664 0.832 15.904-14.208 14.368-18.112v0zM844.889 541.776c2.656-0.672 5.344-0.992 7.936-0.992 15.968 0 30.4 10.976 34.208 27.296 13.504 58.528-3.52 96.065-20.256 117.217-42.112 53.312-119.041 55.52-127.553 55.52h-0.32c-19.2 0-34.912-15.52-35.040-34.816-0.192-19.36 15.424-35.264 34.816-35.392 13.12-0.128 54.656-5.504 72.897-28.832 10.656-13.376 12.896-32.352 7.008-57.92-4.384-18.912 7.424-37.696 26.304-42.080v0zM961.626 776.018c-90.497 101.217-244.29 95.841-250.786 95.585-19.328-0.896-34.432-17.28-33.632-36.64 0.928-19.328 17.024-34.336 36.672-33.472 1.248 0 126.881 4.48 195.361-72.256 39.328-44.064 52.672-108.513 39.616-191.457-2.944-19.168 10.016-37.152 29.216-40.064 1.888-0.32 3.712-0.544 5.536-0.544 17.024 0 31.872 12.448 34.688 29.696 16.416 104.769-2.656 188.609-56.672 249.154v0z" />
<glyph unicode="&#xe913;" glyph-name="star" data-tags="已收藏" d="M512 942.345l-158.207-320.57-353.793-51.412 256-249.536-60.428-352.346 316.428 166.348 316.428-166.348-60.428 352.346 256 249.536-353.779 51.412z" />
<glyph unicode="&#xe914;" glyph-name="double-arrow-up" data-tags="展开" d="M562.756 467.165c-24.082 23.512-63.132 23.512-87.218 0l-439.819-428.375c-24.084-23.514-24.084-61.638 0-85.153s63.134-23.515 87.218 0l396.209 385.9 396.209-385.9c24.087-23.515 63.136-23.515 87.22 0 24.085 23.514 24.085 61.638 0 85.153l-439.82 428.375zM122.937 428.838l396.209 385.9 396.209-385.9c24.087-23.515 63.136-23.515 87.22 0s24.085 61.638 0 85.153l-439.821 428.375c-24.082 23.512-63.132 23.512-87.218 0l-439.819-428.375c-24.084-23.514-24.084-61.638 0-85.153s63.136-23.515 87.219 0v0z" />
<glyph unicode="&#xe915;" glyph-name="shield" data-tags="正品保障" d="M960.498 815.893c-9.891 9.007-22.831 13.964-36.422 13.964-1.257 0-2.513-0.093-3.793-0.163-4.445-0.233-14.871-0.721-29.975-0.721-29.091 0-120.157 1.908-174.057 14.755-55.18 13.103-114.781 61.044-150.365 89.693-9.868 7.936-18.409 14.801-23.063 17.804-8.844 5.725-19.107 8.774-29.719 8.774-8.285 0-20.015-1.42-28.649-8.029-3.095-2.397-8.308-7.145-14.406-12.637-30.417-27.671-87.063-79.22-156.090-95.581-53.993-12.847-150.9-14.755-180.317-14.755-14.871 0-25.204 0.489-28.695 0.652h-0.116l-1.303 0.070c-1.164 0.070-2.351 0.163-3.537 0.163-13.591 0-26.624-4.98-36.561-14.033-10.729-9.658-16.896-23.366-16.896-37.562v-164.794c0-596.248 440.087-673.677 457.169-676.679 3.095-0.535 6.307-0.815 9.402-0.815 3.142 0 6.353 0.279 9.495 0.815 17.082 3.025 454.865 80.966 454.865 676.679v164.794c0 14.196-6.191 27.927-16.966 37.609v0zM938.878 778.238l-0.023-164.794c0-566.669-419.305-639.396-423.215-640.048l-2.56-0.489-2.56 0.489c-3.863 0.675-425.356 73.379-425.356 640.048v180.154l15.756-1.047c0.116 0 12.707-0.791 32.768-0.791 31.209 0 131.724 2.071 189.51 15.825 89.065 21.108 178.455 109.894 179.316 110.778l10.403 10.426 10.612-10.193c0.954-0.884 94.441-89.833 183.529-111.011 54.97-13.079 145.687-15.825 183.319-15.825 19.968 0 32.652 0.791 32.768 0.791l15.779 1.047v-15.337h-0.047v-0.023zM376.283 680.679c-13.568 0-21.574-7.866-23.994-23.668-9.891-67.072-32.675-121.647-68.375-163.7-6.191-11.846-6.191-23.017 0-33.513 8.588-9.216 17.85-8.588 27.718 1.978 3.654 5.26 7.354 10.496 11.078 15.802 2.42 5.26 4.887 9.216 7.377 11.823v-250.508c0-13.126 5.516-20.364 16.593-21.69 12.311 1.327 19.084 7.843 20.364 19.689v321.489c12.288 34.211 20.899 65.094 25.833 92.719 1.28 17.105-4.329 26.973-16.593 29.58v0zM581.339 414.439h140.404c8.588 0 13.545 5.911 14.778 17.757-1.233 10.519-6.772 16.431-16.64 17.78h-149.62v53.248h96.047c23.389 0 35.7 11.846 36.957 35.491v94.65c0 24.972-12.335 37.492-36.957 37.492h-221.649c-25.856 0-38.214-12.521-36.957-37.492v-90.671c0-26.345 11.101-39.471 33.233-39.471h94.231v-53.248h-136.727c-8.634-2.653-14.15-10.566-16.663-23.692 0-7.889 4.934-11.846 14.801-11.846h131.165c-25.856-39.447-73.891-80.198-144.081-122.321-8.611-6.54-9.868-14.452-3.677-23.645 6.144-10.519 14.127-13.824 23.994-9.891 62.813 34.188 106.496 72.285 131.188 114.409v-142.057c0-9.193 5.539-14.429 16.617-15.756 11.124 1.327 17.245 7.238 18.479 17.734v140.079c35.7-49.99 84.945-90.065 147.828-120.32 9.821-3.933 17.827 0 23.994 11.846 4.911 10.519 3.049 19.060-5.539 25.647-76.404 35.491-128.116 76.916-155.206 124.276v0zM464.975 538.669c-16.012-1.35-23.412 7.238-22.179 25.647v51.27c-1.233 13.103 4.911 19.735 18.455 19.735h184.739c14.801 0 22.179-8.541 22.179-25.6v-47.383c-1.257-15.802-8.029-23.668-20.34-23.668h-182.854z" />
<glyph unicode="&#xe916;" glyph-name="edit" data-tags="注册" d="M772.069 960h-629.111c0 0-79.16-1.002-89.992-90.994v-836.594c0 0-0.833-96.411 106.658-96.411h732.437c0 0 84.993 4.752 91.659 92.245v676.608l-93.325-69.994-1.667-604.947-742.436 0.833v836.594h557.452l68.326 92.66zM851.438 915.669l98.742-76.868 20.623 27.497c0 0 15.623 20.623 0 45.621 0 0-14.374 23.748-38.747 37.496 0 0-33.123 18.124-54.995-3.75l-25.623-29.996zM918.931 798.178l-168.11-223.105c0 0-14.999-27.497-41.246-39.997l-74.369-35.622c0 0-19.998-9.999-24.373 17.498l13.124 81.867c0 0-1.25 14.999 18.749 41.246l178.109 235.605 98.116-77.493zM296.486 379.465h440.587c0 0 14.374 3.75 13.749-20.623l0.019-41.246c0 0-3.145-11.249-20.018-8.75l-429.962-0.362c0 0-14.999-0.887-16.248 13.487v47.495c-0.003 0 2.498 9.999 11.872 9.999v0zM296.486 215.73h440.587c0 0 14.374 3.75 13.749-20.623l0.019-41.246c0 0-3.145-11.249-20.018-8.75l-429.962-0.362c0 0-14.999-0.887-16.248 13.487v47.495c-0.003 0 2.498 9.999 11.872 9.999v0z" />
<glyph unicode="&#xe917;" glyph-name="qq" data-tags="QQ" d="M963.877 263.314c-7.182 98.901-73.545 181.758-111.907 224.614 5.325 12.468 18.283 84.635-31.754 133.876 0.080 1.181 0.080 2.353 0.080 3.498 0 194.248-138.26 334.063-311.742 334.699-173.51-0.637-311.765-140.452-311.765-334.699 0-1.145-0.017-2.317 0.066-3.498-50.037-49.241-37.056-121.408-31.754-133.876-38.337-42.855-104.708-125.712-111.904-224.614-1.298-25.999 2.723-63.87 15.423-80.702 15.476-20.525 57.953 4.121 88.33 69.696 8.452-30.379 27.959-76.756 72.098-135.622-73.869-16.858-94.939-89.716-70.088-129.541 17.527-28.064 57.654-51.145 126.807-51.145 123.038 0 177.374 33.067 201.624 56.093 4.943 5.023 12.072 7.445 21.163 7.464 9.061-0.019 16.207-2.441 21.133-7.464 24.253-23.026 78.6-56.093 201.61-56.093 69.179 0 109.278 23.081 126.805 51.145 24.858 39.825 3.792 112.685-70.058 129.541 44.141 58.867 63.652 105.243 72.098 135.622 30.385-65.575 72.854-90.22 88.343-69.696 12.687 16.831 16.712 54.703 15.393 80.702v0z" />
<glyph unicode="&#xe918;" glyph-name="angle-left" data-tags="angle-left" horiz-adv-x="549" d="M512 949.029v0 0c0 0-501.029-482.743-501.029-482.743-14.629-14.629 0-32.914 0-32.914l501.029-482.743c3.657-3.657 7.314-3.657 14.629-3.657 10.971 0 21.943 10.971 21.943 21.943 0 3.657-3.657 10.971-3.657 14.629v0 0c0 0-482.743 468.114-482.743 468.114s482.743 468.114 482.743 468.114v0 0c3.657 3.657 3.657 7.314 3.657 14.629 0 10.971-10.971 21.943-21.943 21.943-7.314-3.657-10.971-3.657-14.629-7.314v0 0z" />
<glyph unicode="&#xe919;" glyph-name="angle-right" data-tags="angle-right" horiz-adv-x="549" d="M34.669-43.527l0.002-0.005 0.151 0.144c0.583 0.504 498.899 483.52 498.899 483.52 14.712 14.713 0 31.158 0 31.158l-498.647 483.373c-3.724 3.32-8.63 5.337-14.014 5.337-11.629 0-21.060-9.43-21.060-21.060 0-5.251 1.935-10.040 5.112-13.728l-0.006-0.008 0.12-0.119c0.787-0.9 483.485-469.562 483.485-469.562s-482.693-468.231-483.483-469.133l-0.12-0.118 0.009-0.009c-3.18-3.686-5.112-8.478-5.112-13.727 0-11.631 9.427-21.061 21.060-21.061 5.189 0 9.932 1.887 13.603 4.998v0 0z" />
</font>
</defs>
</svg>
