<?xml version="1.0" encoding="UTF-8" standalone="no"?>
<svg width="170px" height="71px" viewBox="0 0 170 71" version="1.1" xmlns="http://www.w3.org/2000/svg" xmlns:xlink="http://www.w3.org/1999/xlink">
    <!-- Generator: Sketch 39.1 (31720) - http://www.bohemiancoding.com/sketch -->
    <title>logo</title>
    <desc>Created with Sketch.</desc>
    <defs></defs>
    <g id="Page-1" stroke="none" stroke-width="1" fill="none" fill-rule="evenodd">
        <g id="首页-copy" transform="translate(-204.000000, -66.000000)">
            <g id="1">
                <g id="head" transform="translate(204.000000, 66.000000)">
                    <g id="logo">
                        <path d="M170.03839,23.3044228 C128.274857,39.9950101 43.0490452,15.6077366 1.01715196,32.1539866 L1.01871068,32.198198 C50.7545719,18.1954044 124.59602,44.5490453 170.03943,23.3358909 L170.03839,23.3044228 Z M169.823287,17.7803372 C128.059753,34.4706644 42.833942,10.0833909 0.802048754,26.629901 L0.803607473,26.6741124 C50.5394687,12.6713188 124.380917,39.0246997 169.824326,17.8115453 L169.823287,17.7803372 Z M143.711889,37.8411342 C143.711889,36.6047752 143.426383,35.4292718 142.881871,34.3193054 C142.515832,33.5721326 142.032369,32.9284664 141.444472,32.3781644 C142.660013,32.2465705 143.864383,32.0998926 145.058102,31.9378708 C145.179942,32.109255 145.297106,32.2837601 145.409593,32.4611258 C145.761864,33.0166292 146.07049,33.5978792 146.323782,34.2100772 C146.773992,35.3624346 147.034298,36.5681057 147.034298,37.8078456 C147.034298,39.4894396 146.575515,41.0742886 145.789661,42.5535503 C144.930287,44.1709077 143.680974,45.446797 142.137323,46.4254295 C140.463259,47.4870235 138.596433,47.9515034 136.620237,47.9515034 C135.082301,47.9515034 133.558914,47.6911762 132.153469,47.0498507 C131.523746,46.7627366 130.917405,46.4212685 130.358344,46.0121829 C129.806298,45.6085587 129.309067,45.1388775 128.856519,44.6265453 C127.99039,43.6453121 127.283511,42.5428876 126.811739,41.3187517 C126.590401,40.7440034 126.418422,40.1518305 126.296583,39.5482148 C126.181237,38.9760671 126.111355,38.3916963 126.111355,37.8078456 C126.111355,36.5787685 126.366205,35.3835 126.817195,34.2425856 C126.947348,33.9141208 127.092568,33.5944983 127.253116,33.2837181 C128.509704,33.2517299 129.758237,33.2088188 130.997938,33.1544648 C130.527205,33.7619815 130.159348,34.4350352 129.896963,35.1645235 C129.74343,35.5912936 129.63328,36.0313272 129.554045,36.4781225 C129.474291,36.9272584 129.433504,37.3852366 129.433504,37.8411342 C129.433504,38.7422668 129.59743,39.622594 129.901899,40.4701527 C130.214422,41.3421577 130.682038,42.1306812 131.285522,42.8328624 C131.911867,43.5615705 132.674081,44.1144732 133.541248,44.5154966 C133.997693,44.7160084 134.474401,44.865547 134.963319,44.9635923 C135.494323,45.0707399 136.041173,45.1118305 136.582309,45.1118305 C137.935277,45.1118305 139.242522,44.8236762 140.394156,44.0923674 C141.464476,43.412552 142.288519,42.5085587 142.859269,41.3757064 C143.418849,40.2639195 143.711889,39.0850352 143.711889,37.8411342 L143.711889,37.8411342 Z M115.943832,34.4503792 C113.782408,38.6551443 112.142116,42.4118138 109.68038,47.551 L106.253277,47.551 L113.125668,33.2441879 C115.037177,33.2962013 116.935696,33.3315705 118.818889,33.3482148 L125.662444,47.551 L122.234821,47.551 C119.566035,42.0115705 117.973284,38.3599681 115.943832,34.4503792 L115.943832,34.4503792 Z M92.8043904,32.2226443 L92.8043904,44.7118473 L95.6386609,44.7118473 C96.400095,44.7118473 97.1646466,44.6736174 97.9201057,44.5753121 C98.7010238,44.4731057 99.4642765,44.1469815 100.145956,43.7623423 C100.959607,43.3033238 101.550622,42.525203 101.984465,41.7140537 C102.601198,40.5611762 102.768241,39.1253456 102.768241,37.836453 C102.768241,36.7865621 102.662768,35.6773758 102.314134,34.6813188 C102.060063,33.9557315 101.683113,33.2915201 101.153408,32.7380973 C102.414672,32.8077953 103.672038,32.8730721 104.924728,32.9331477 C104.966554,33.0150688 105.007081,33.0980302 105.046309,33.1820319 C105.728508,34.6451695 106.09039,36.193349 106.09039,37.8078456 C106.09039,38.9313356 105.948807,40.0480638 105.649273,41.1317634 C105.33649,42.2625352 104.778469,43.2934413 104.064056,44.2198003 C103.217412,45.3175436 102.042398,46.0860419 100.782693,46.6321829 C99.1660416,47.3333238 97.3254544,47.551 95.5768317,47.551 L89.6537,47.551 L89.6537,32.0049681 C90.7055754,32.0793473 91.7564117,32.1521661 92.8043904,32.2226443 L92.8043904,32.2226443 Z M76.0060772,37.8411342 C76.0060772,36.6047752 75.7200523,35.4292718 75.1760594,34.3193054 C74.6125826,33.1700688 73.7726929,32.2660755 72.7008139,31.5696158 C72.1557819,31.2156644 71.5658068,30.9535168 70.9407605,30.7766711 C70.682273,30.7035923 70.4209278,30.6463775 70.1569847,30.6037265 C72.3184082,30.7467634 74.4821698,30.8970822 76.6456715,31.0526023 C77.0379491,31.4902953 77.3891804,31.9651779 77.7037819,32.4611258 C78.0560523,33.0166292 78.3644189,33.5978792 78.6182302,34.2100772 C79.0679206,35.3624346 79.3284865,36.5681057 79.3284865,37.8078456 C79.3284865,39.4894396 78.8699633,41.0742886 78.0835897,42.5535503 C77.2244758,44.1709077 75.9749028,45.446797 74.4315114,46.4254295 C72.7574473,47.4870235 70.8903619,47.9515034 68.9146858,47.9515034 C67.37649,47.9515034 65.8528423,47.6911762 64.4476573,47.0498507 C63.8179349,46.7627366 63.2115932,46.4212685 62.652273,46.0121829 C62.1004865,45.6085587 61.6027356,45.1388775 61.1507071,44.6265453 C60.284579,43.6453121 59.5771804,42.5428876 59.105668,41.3187517 C58.8843299,40.7440034 58.7123512,40.1518305 58.591031,39.5482148 C58.475426,38.9760671 58.4055434,38.3916963 58.4055434,37.8078456 C58.4055434,36.5787685 58.6601342,35.3835 59.1113833,34.2425856 C59.5927676,33.0249513 60.2889954,31.9295487 61.1610986,30.954557 C61.4315363,30.652099 61.7188601,30.3709664 62.0215114,30.1098591 C64.2299562,30.2300101 66.4446359,30.3636846 68.6619135,30.5062013 C67.6970665,30.5288272 66.7506644,30.7067131 65.8671306,31.1126779 C65.0017819,31.5111007 64.2439847,32.0595822 63.6106253,32.7711258 C62.9842801,33.4746074 62.50991,34.2782148 62.1908922,35.1645235 C62.0373584,35.5912936 61.9272089,36.0313272 61.847974,36.4781225 C61.7682196,36.9272584 61.7276929,37.3852366 61.7276929,37.8411342 C61.7276929,38.7422668 61.8913584,39.622594 62.1958281,40.4701527 C62.508611,41.3421577 62.9764865,42.1306812 63.5799705,42.8328624 C64.2055363,43.5615705 64.9680096,44.1144732 65.8354367,44.5154966 C66.2918815,44.7160084 66.7685897,44.865547 67.2575078,44.9635923 C67.7882516,45.0707399 68.3353619,45.1118305 68.8762374,45.1118305 C70.2294651,45.1118305 71.5364509,44.8236762 72.6883441,44.0923674 C73.7586644,43.412552 74.5827071,42.5085587 75.1531982,41.3757064 C75.7127783,40.2639195 76.0060772,39.0850352 76.0060772,37.8411342 L76.0060772,37.8411342 Z M48.4562409,34.4503792 C46.2917,38.6608658 44.6477712,42.4248171 42.1925292,47.551 L38.765426,47.551 L47.4150167,29.5444732 C48.1161804,29.5585168 48.8183833,29.5751611 49.5218851,29.5933658 L58.1745932,47.551 L54.7469705,47.551 C52.0199918,41.8903792 50.4324367,38.2575017 48.4562409,34.4503792 L48.4562409,34.4503792 Z M27.98091,38.9414782 L27.98091,44.768802 L31.1388744,44.768802 C32.0398139,44.768802 33.1714438,44.6494312 33.8957285,44.055698 C34.5758495,43.4981141 34.7447107,42.5857987 34.7447107,41.750203 C34.7447107,39.5445738 33.1353335,38.9414782 31.1677107,38.9414782 L27.98091,38.9414782 Z M27.98091,30.904104 L27.98091,36.1023255 L30.5912445,36.1023255 C32.4697605,36.1023255 33.8016858,35.4521577 33.8016858,33.4121913 C33.8016858,32.7362768 33.5709954,32.1542466 33.1194865,31.651797 C32.5399028,31.0070906 31.3991804,30.904104 30.5912445,30.904104 L27.98091,30.904104 Z M34.9917676,37.2408993 C35.4658779,37.4148842 35.9085541,37.6588272 36.3091448,37.9805302 C36.8656075,38.4283658 37.2958139,38.9869899 37.6145719,39.6350772 C37.7577142,39.9562601 37.8740986,40.2862852 37.9517747,40.6293138 C38.0328281,40.9871661 38.0668601,41.3551611 38.0668601,41.7215956 C38.0668601,43.5594899 37.6369135,45.5383406 35.8807569,46.4691208 C35.2008957,46.8142299 34.4885612,47.0901611 33.7497285,47.2774094 C33.0259633,47.4610168 32.2850523,47.551 31.5386858,47.551 L24.8299598,47.551 L24.8299598,30.0698087 C28.4095577,29.7951779 32.0535826,29.6266544 35.7477463,29.5444732 C35.8287996,29.6188523 35.9080345,29.6953121 35.9854509,29.7746326 C36.3818851,30.1800772 36.6645327,30.6554799 36.8456039,31.1925185 C37.0542125,31.8112181 37.1238352,32.481151 37.1238352,33.1310587 C37.1238352,34.1070906 36.9336715,35.0737601 36.4205932,35.9148171 C36.0605292,36.5043893 35.5820025,36.9467634 34.9917676,37.2408993 L34.9917676,37.2408993 Z M143.112042,21.7653456 L143.112042,0.874934564 L146.482771,0.874934564 L146.482771,21.4543054 C145.371405,21.569255 144.247828,21.6732819 143.112042,21.7653456 L143.112042,21.7653456 Z M134.708988,22.2467299 C131.853935,16.2547836 130.147917,12.4286762 127.81997,7.94355872 C125.331476,12.7828876 123.614547,16.6412433 120.906533,22.3585587 C119.708917,22.340354 118.505586,22.3159077 117.29576,22.2862601 L127.81997,0.377686242 L138.280013,22.0867886 C137.100063,22.1497248 135.91076,22.2043389 134.708988,22.2467299 L134.708988,22.2467299 Z M119.082832,0.874934564 L109.730519,22.0373758 C108.830099,22.0009664 107.927081,21.9622164 107.021985,21.921646 L100.732554,7.83120973 L94.7395399,21.2792802 C93.6019349,21.2132232 92.463031,21.1463859 91.3230879,21.0779883 L82.3947463,0.874934564 L85.7891164,0.874934564 L92.9683157,17.7824178 L100.732554,0.377686242 L108.544593,17.7824178 L115.688202,0.874934564 L119.082832,0.874934564 Z M67.205031,19.6725856 L67.205031,0.874934564 L70.5757605,0.874934564 L70.5757605,19.8476107 C69.4498459,19.7870151 68.3262694,19.7287601 67.205031,19.6725856 L67.205031,19.6725856 Z M57.9906644,19.274943 C55.9503014,14.9422248 54.4495149,11.6833238 52.5083904,7.94355872 C50.5155683,11.8190789 48.9576288,15.1786258 47.1583477,19.0276191 C45.9482623,19.0177366 44.7480488,19.0169564 43.5527712,19.0211174 L52.5083904,0.377686242 L61.6819705,19.4166795 C60.4466858,19.3649262 59.2171164,19.3181141 57.9906644,19.274943 L57.9906644,19.274943 Z M40.0872196,18.5992886 C40.0872196,18.7532483 40.0815043,18.9053876 40.070853,19.0557064 C38.8592089,19.0757315 37.6540594,19.1019983 36.4611199,19.1399681 C36.4896964,18.9472584 36.5037249,18.7475268 36.5037249,18.5402534 C36.5037249,17.8354715 36.3556466,17.2261342 36.0540345,16.7169228 C35.7524224,16.2077114 35.3622231,15.7814614 34.8831769,15.4381728 C34.4041306,15.0889027 33.7772658,14.7040034 33.0025826,14.2897164 L30.7554295,13.1646661 C29.1590416,12.3654799 27.9110274,11.4776107 27.0064509,10.5010587 C26.1016146,9.52398658 25.6464687,8.19816443 25.6464687,6.51683054 C25.6464687,5.51063087 25.9241804,4.53954027 26.4858388,3.59809732 C27.0477569,2.65119295 27.9050523,1.8813943 29.0642196,1.27777852 C30.223127,0.679624161 31.5776537,0.377686242 33.1267605,0.377686242 C35.226095,0.377686242 37.0947391,0.98702349 38.9218174,1.84550503 L37.5265043,4.53954027 C36.1841875,3.75205705 34.7353584,3.36143624 33.1802765,3.36143624 C31.9086217,3.36143624 30.9328637,3.67507718 30.2527427,4.30860067 C29.5728815,4.93614262 29.2297036,5.65236745 29.2297036,6.45181376 C29.2297036,7.14411242 29.4546786,7.77191443 29.9041093,8.34016107 C30.3535399,8.90814765 30.9271484,9.3996745 31.6187,9.81396141 C31.8021093,9.92084899 32.0917712,10.0748087 32.4882053,10.2818221 C33.2275577,10.6667215 33.8541626,10.986604 34.3745149,11.2526527 L35.9298566,12.0697836 L37.2132018,12.8510252 C37.9289135,13.3246074 38.5851342,14.0468138 39.1880986,15.0176443 C39.7856075,15.9887349 40.0872196,17.178802 40.0872196,18.5992886 L40.0872196,18.5992886 Z" id="Fill-3" fill="#F57605"></path>
                        <g id="Group-16" transform="translate(38.274882, 57.906040)" fill="#956332">
                            <path d="M5.98767591,6.85395058 L8.03795802,6.85395058 L8.03795802,5.62239094 L5.98767591,5.62239094 L5.98767591,6.85395058 Z M5.98767591,5.10911303 L8.03795802,5.10911303 L8.03795802,3.98020897 L5.98767591,3.98020897 L5.98767591,5.10911303 Z M8.08923042,8.03448978 L8.08923042,9.52268838 L9.88345753,9.52268838 L9.83218513,9.52268838 C9.59270923,9.28356849 9.28507481,8.94117831 8.90958888,8.49613255 C8.53318189,8.05200885 8.24304763,7.69302166 8.03795802,7.41855628 L5.8338587,7.41855628 C5.25236209,8.17126144 4.67147953,8.87325351 4.09090399,9.52268838 L5.98767591,9.52268838 L5.98767591,8.03448978 L8.08923042,8.03448978 Z M3.16830774,2.74895668 L3.16830774,3.41591062 L3.93708678,3.41591062 L3.93708678,2.49231772 L5.98767591,2.49231772 L5.98767591,3.41591062 L8.03795802,3.41591062 L8.03795802,2.49231772 L10.0885471,2.49231772 L10.0885471,3.41591062 L10.9085986,3.41591062 L10.9085986,3.36458282 L10.9085986,2.6463011 C10.9423708,2.13302318 10.6009642,1.89421065 9.88345753,1.92771202 L5.06507966,1.92771202 C4.10779011,1.92771202 3.47594217,2.20187004 3.16830774,2.74895668 L3.16830774,2.74895668 Z M3.16830774,4.33981086 L1.11771861,4.33981086 L1.11771861,1.26045073 L3.16830774,1.26045073 L3.16830774,2.49231772 C3.37339736,1.77372865 4.02213142,1.41443411 5.11635206,1.41443411 L5.8338587,1.41443411 L5.8338587,0.131546675 L8.24304763,0.131546675 L8.24304763,1.41443411 L10.5499988,1.41443411 C12.1904087,1.38093273 12.9591877,1.74022727 12.8566429,2.49231772 L12.8566429,3.36458282 C12.8566429,3.74139643 12.8053705,4.03184411 12.7028257,4.23715528 L10.6522366,4.23715528 C10.6860088,4.13449969 10.7207021,4.04936318 10.7547814,3.98051632 L10.0885471,3.98051632 L10.0885471,5.10911303 L12.0878639,5.10911303 L12.0878639,5.62239094 L10.0885471,5.62239094 L10.0885471,6.85395058 L13.0104601,6.85395058 L13.0104601,7.41855628 L10.1398196,7.41855628 C11.1987328,8.82192572 12.1904087,9.76242297 13.1130049,10.2409701 C11.6089121,10.309817 10.6694297,10.1896423 10.2936368,9.88198292 L10.2936368,10.0356589 L8.08923042,10.0356589 L8.08923042,11.5241649 L12.8566429,11.5241649 L12.8566429,12.0881559 L1.27153582,12.0881559 L1.27153582,11.5241649 L5.98767591,11.5241649 L5.98767591,10.0356589 L3.47594217,10.0356589 L3.47594217,9.93331071 C3.03137665,10.2071614 2.14316669,10.309817 0.810391211,10.2409701 C1.69860118,9.76242297 2.68935595,8.82192572 3.78326957,7.41855628 L0.963901402,7.41855628 L0.963901402,6.85395058 L3.93708678,6.85395058 L3.93708678,5.62239094 L1.83553227,5.62239094 L1.83553227,5.10911303 L3.93708678,5.10911303 L3.93708678,3.98051632 L3.16830774,3.98051632 L3.16830774,4.33981086 Z" id="Fill-4"></path>
                            <path d="M37.3576062,12.3449178 L35.3582895,12.3449178 L35.3582895,0.131669616 L37.3576062,0.131669616 L37.3576062,3.51838179 L38.6903817,3.51838179 C39.3056505,6.35831467 39.8518398,7.96638057 40.3307916,8.34227212 C38.7929265,8.61643014 37.9384888,8.12005659 37.7677855,6.85407352 C37.6987059,6.61495363 37.579582,6.22154301 37.4088786,5.67384167 C37.3744923,5.50295394 37.3576062,5.36587492 37.3576062,5.26321934 L37.3576062,12.3449178 Z M30.2835496,4.85259701 L30.847239,4.85259701 C31.1204872,6.11888743 31.3768492,6.92292038 31.6163251,7.26469585 C31.7526421,6.88849695 31.9577317,6.32389124 32.2315939,5.57118609 C32.4019902,5.12706239 32.5389213,4.78436486 32.6414661,4.54493761 C32.6414661,4.44228203 32.6583523,4.35714552 32.6927385,4.28829866 C32.7952833,3.87767633 32.8634419,3.56970958 32.8978282,3.36439841 C32.8978282,2.95377608 32.6752384,2.74877227 32.2315939,2.74877227 C31.8892662,2.74877227 31.6332112,2.7831957 31.4625079,2.85142785 C31.3599631,3.15908725 31.2399181,3.467054 31.103601,3.77502074 C30.8297389,4.39095424 30.5567977,4.74994143 30.2835496,4.85259701 L30.2835496,4.85259701 Z M30.3860944,0.182997407 L32.4366835,0.182997407 C32.1625143,0.867470409 31.9239595,1.56823307 31.7188699,2.28682215 C31.9577317,2.18416656 32.2828663,2.13283877 32.6927385,2.13283877 C34.1618311,2.06491397 34.8458725,2.50995973 34.7433277,3.467054 C34.7089414,3.87767633 34.6407829,4.28829866 34.5382381,4.69861364 C33.7181866,7.1964637 32.8121695,9.35192358 31.8214147,11.1646859 C31.4112355,12.1909344 30.1635046,12.5837303 28.0791433,12.3449178 C28.7281844,12.0707598 29.3431462,11.5408848 29.9246428,10.7540636 C30.3682872,9.9331263 30.8131598,9.02705247 31.2574183,8.03461272 C30.0953461,8.10315223 29.4634982,7.62399039 29.3609534,6.59743456 C29.189636,6.11888743 29.0702051,5.72516946 29.0020465,5.41720272 L29.0020465,5.16056376 C28.7281844,5.16056376 28.4036638,5.12706239 28.0281779,5.05790818 C28.5062086,4.78436486 28.933274,4.18564308 29.309681,3.26174283 C29.5147706,2.7831957 29.7877117,2.01358618 30.1297324,0.952914277 C30.2322772,0.576715375 30.3170148,0.320076419 30.3860944,0.182997407 L30.3860944,0.182997407 Z" id="Fill-5"></path>
                            <path d="M63.3964653,8.03448978 L65.3445097,8.03448978 C65.5830645,9.6084396 65.9085061,10.5664559 66.3186853,10.9082314 C64.5413443,10.9761562 63.6697135,10.5489369 63.7040998,9.62534396 C63.5324754,9.07825732 63.4299306,8.54746034 63.3964653,8.03448978 L63.3964653,8.03448978 Z M67.0871573,11.9855003 L55.6561745,11.9855003 L55.6561745,11.4215093 L60.1156455,11.4215093 L60.1156455,7.57253966 L56.1685915,7.57253966 L56.1685915,7.00793395 L60.1156455,7.00793395 L60.1156455,4.80114628 L56.3224087,4.80114628 L56.3224087,4.23715528 L66.5747403,4.23715528 L66.5747403,4.80114628 L62.3713243,4.80114628 L62.3713243,7.00793395 L66.6772851,7.00793395 L66.6772851,7.57253966 L62.3713243,7.57253966 L62.3713243,11.4215093 L67.0871573,11.4215093 L67.0871573,11.9855003 Z M59.6032285,1.56841748 L60.1669179,1.56841748 L60.1669179,0.131546675 L62.5764139,0.131546675 L62.5764139,1.56841748 L65.2932372,1.56841748 C66.4890816,1.56841748 67.0871573,1.92771202 67.0871573,2.6463011 L67.0871573,3.10794387 C67.0871573,3.45033405 67.0183848,3.72387736 66.8823747,3.92918853 L64.8317856,3.92918853 C64.9681027,3.69006864 65.0534543,3.41591062 65.0881476,3.10794387 L65.0881476,2.80028447 C65.1559991,2.28700656 64.7970923,2.04788667 64.0117342,2.08169539 L59.6032285,2.08169539 C58.5433942,2.04788667 57.9281253,2.2701022 57.757729,2.74895668 L57.757729,3.87786074 L55.6561745,3.87786074 L55.6561745,1.51708969 L57.757729,1.51708969 L57.757729,2.33833435 C57.8602738,1.82505644 58.4755427,1.56841748 59.6032285,1.56841748 L59.6032285,1.56841748 Z" id="Fill-6"></path>
                            <path d="M86.4619548,2.28694509 L88.6147818,2.28694509 C89.1275058,3.17703661 89.6915022,3.77514369 90.306157,4.08311043 C88.3584197,4.15195729 87.2988924,3.89531833 87.1281891,3.31319356 C86.9230995,3.07438103 86.7517821,2.83433908 86.615465,2.59491184 C86.5466925,2.45875488 86.4954201,2.3560993 86.4619548,2.28694509 L86.4619548,2.28694509 Z M92.3054738,10.394892 L92.3054738,8.18841168 C92.339246,7.4018978 91.9293738,7.0256989 91.0752431,7.05920027 L85.6415964,7.05920027 C84.069345,7.16185586 83.3515314,6.59725015 83.4884624,5.36599786 L83.4884624,1.05538545 L85.590324,1.05538545 L85.590324,1.56835601 C86.103048,1.26038926 86.478841,0.782149481 86.7180098,0.131485204 L89.2300506,0.131485204 C89.024961,0.542107535 88.8533366,0.850074283 88.7173266,1.05538545 L91.4341499,1.05538545 C92.8350839,1.02157672 93.5182043,1.55145165 93.4847391,2.64623963 L93.4847391,4.23709381 C93.5182043,5.46865345 92.7325391,6.05077822 91.1265155,5.98162401 C89.3147882,6.01635479 87.9998199,5.57130903 87.1794615,4.64771614 C87.8281955,4.92156681 88.648247,5.04112675 89.6402298,5.00670333 C90.9039257,5.07555018 91.4854223,4.75006437 91.3828775,4.03178264 L91.3828775,2.54358405 C91.4166498,1.8594184 91.0064705,1.53485464 90.1526469,1.56835601 L86.8718271,1.56835601 C86.3928753,1.56835601 85.9661169,1.77366718 85.590324,2.18428951 L85.590324,5.31467007 C85.4877792,6.20445424 85.846686,6.59725015 86.6667374,6.49459457 L92.6131082,6.49459457 C93.8433389,6.4610932 94.4408005,6.99127547 94.4073353,8.0857561 L94.4073353,10.7028588 C94.5098801,11.899995 93.7579872,12.4642933 92.1516566,12.3963685 C90.7844948,12.3616377 89.7762399,12.0023432 89.1275058,11.3187923 C89.7080813,11.4214478 90.2889639,11.4727756 90.8701535,11.4727756 C91.8952945,11.5407004 92.3736323,11.1814059 92.3054738,10.394892 L92.3054738,10.394892 Z M84.8212379,11.3187923 L82.8225352,11.3187923 L82.8225352,7.93177273 L84.8212379,7.93177273 L84.8212379,10.3435642 C84.957862,10.7203778 85.1970309,10.8912656 85.5390516,10.8568421 L86.103048,10.8568421 L86.103048,7.41849481 L88.1023647,7.41849481 L88.1023647,10.8568421 L88.4096921,10.8568421 C89.0584262,10.8912656 89.3660606,10.6346266 89.3325954,10.0869253 L89.3325954,7.98310052 L91.2803327,7.98310052 L91.2803327,10.0355975 C91.2803327,10.8230334 90.8013809,11.2161367 89.8453195,11.2161367 L86.0005032,11.2161367 C85.3508481,11.2161367 84.957862,11.0443269 84.8212379,10.7028588 L84.8212379,11.3187923 Z" id="Fill-7"></path>
                        </g>
                    </g>
                </g>
            </g>
        </g>
    </g>
</svg>